<mxfile host="app.diagrams.net" modified="2023-07-12T13:31:59.422Z" agent="Mozilla/5.0 (X11; Linux x86_64; rv:107.0) Gecko/20100101 Firefox/107.0" etag="EVsfJPd1-tS0CPOJQHJt" version="21.6.2">
  <diagram name="Page-1" id="Qx_pXZXx4m_uFdPb8SC9">
    <mxGraphModel dx="1046" dy="465" grid="1" gridSize="10" guides="1" tooltips="1" connect="1" arrows="1" fold="1" page="1" pageScale="1" pageWidth="850" pageHeight="1100" math="0" shadow="0">
      <root>
        <mxCell id="0" />
        <mxCell id="1" parent="0" />
        <mxCell id="AgD02Y9NAy6FEA0AyiX0-7" value="&lt;font style=&quot;font-size: 14px;&quot;&gt;Tracking&lt;/font&gt;" style="text;html=1;strokeColor=none;fillColor=none;align=center;verticalAlign=middle;whiteSpace=wrap;rounded=0;" parent="1" vertex="1">
          <mxGeometry x="170" y="240" width="60" height="30" as="geometry" />
        </mxCell>
        <mxCell id="Mec4iRGoru6nIyhW2XKM-5" style="edgeStyle=orthogonalEdgeStyle;rounded=0;orthogonalLoop=1;jettySize=auto;html=1;exitX=1;exitY=0.5;exitDx=0;exitDy=0;entryX=0;entryY=0.5;entryDx=0;entryDy=0;" edge="1" parent="1" source="Mec4iRGoru6nIyhW2XKM-1" target="Mec4iRGoru6nIyhW2XKM-2">
          <mxGeometry relative="1" as="geometry" />
        </mxCell>
        <mxCell id="Mec4iRGoru6nIyhW2XKM-1" value="&lt;font style=&quot;font-size: 14px;&quot;&gt;1. Ready&lt;/font&gt;" style="rounded=1;whiteSpace=wrap;html=1;fillColor=none;" vertex="1" parent="1">
          <mxGeometry y="240" width="120" height="60" as="geometry" />
        </mxCell>
        <mxCell id="Mec4iRGoru6nIyhW2XKM-6" style="edgeStyle=orthogonalEdgeStyle;rounded=0;orthogonalLoop=1;jettySize=auto;html=1;exitX=1;exitY=0.5;exitDx=0;exitDy=0;entryX=0;entryY=0.5;entryDx=0;entryDy=0;" edge="1" parent="1" source="Mec4iRGoru6nIyhW2XKM-2" target="Mec4iRGoru6nIyhW2XKM-3">
          <mxGeometry relative="1" as="geometry" />
        </mxCell>
        <mxCell id="Mec4iRGoru6nIyhW2XKM-2" value="&lt;font style=&quot;font-size: 14px;&quot;&gt;2. Record&lt;/font&gt;" style="rounded=1;whiteSpace=wrap;html=1;fillColor=none;" vertex="1" parent="1">
          <mxGeometry x="260" y="240" width="120" height="60" as="geometry" />
        </mxCell>
        <mxCell id="Mec4iRGoru6nIyhW2XKM-7" style="edgeStyle=orthogonalEdgeStyle;rounded=0;orthogonalLoop=1;jettySize=auto;html=1;exitX=0.5;exitY=1;exitDx=0;exitDy=0;entryX=0.5;entryY=1;entryDx=0;entryDy=0;" edge="1" parent="1" source="Mec4iRGoru6nIyhW2XKM-3" target="Mec4iRGoru6nIyhW2XKM-1">
          <mxGeometry relative="1" as="geometry">
            <Array as="points">
              <mxPoint x="620" y="360" />
              <mxPoint x="60" y="360" />
            </Array>
          </mxGeometry>
        </mxCell>
        <mxCell id="Mec4iRGoru6nIyhW2XKM-10" style="edgeStyle=orthogonalEdgeStyle;rounded=0;orthogonalLoop=1;jettySize=auto;html=1;exitX=1;exitY=0.5;exitDx=0;exitDy=0;entryX=0.5;entryY=0;entryDx=0;entryDy=0;" edge="1" parent="1" source="Mec4iRGoru6nIyhW2XKM-3" target="Mec4iRGoru6nIyhW2XKM-9">
          <mxGeometry relative="1" as="geometry" />
        </mxCell>
        <mxCell id="Mec4iRGoru6nIyhW2XKM-3" value="&lt;font style=&quot;font-size: 14px;&quot;&gt;3. Process&lt;/font&gt;" style="rounded=1;whiteSpace=wrap;html=1;fillColor=none;" vertex="1" parent="1">
          <mxGeometry x="520" y="240" width="120" height="60" as="geometry" />
        </mxCell>
        <mxCell id="Mec4iRGoru6nIyhW2XKM-9" value="&lt;font style=&quot;font-size: 14px;&quot;&gt;4. Error&lt;/font&gt;" style="rounded=1;whiteSpace=wrap;html=1;fillColor=none;" vertex="1" parent="1">
          <mxGeometry x="710" y="300" width="120" height="60" as="geometry" />
        </mxCell>
        <mxCell id="Mec4iRGoru6nIyhW2XKM-11" value="&lt;font style=&quot;font-size: 14px;&quot;&gt;Tracking end&lt;/font&gt;" style="text;html=1;strokeColor=none;fillColor=none;align=center;verticalAlign=middle;whiteSpace=wrap;rounded=0;" vertex="1" parent="1">
          <mxGeometry x="410" y="240" width="90" height="30" as="geometry" />
        </mxCell>
        <mxCell id="Mec4iRGoru6nIyhW2XKM-12" value="&lt;div style=&quot;font-size: 14px;&quot; align=&quot;center&quot;&gt;Recording end&lt;/div&gt;" style="text;whiteSpace=wrap;html=1;align=center;" vertex="1" parent="1">
          <mxGeometry x="405" y="270" width="100" height="30" as="geometry" />
        </mxCell>
        <mxCell id="Mec4iRGoru6nIyhW2XKM-13" value="&lt;font style=&quot;font-size: 14px;&quot;&gt;Processing end&lt;/font&gt;" style="text;whiteSpace=wrap;html=1;align=center;" vertex="1" parent="1">
          <mxGeometry x="245" y="330" width="190" height="30" as="geometry" />
        </mxCell>
        <mxCell id="Mec4iRGoru6nIyhW2XKM-15" value="&lt;font style=&quot;font-size: 14px;&quot;&gt;Processing error&lt;br&gt;&lt;/font&gt;" style="text;html=1;strokeColor=none;fillColor=none;align=center;verticalAlign=middle;whiteSpace=wrap;rounded=0;" vertex="1" parent="1">
          <mxGeometry x="650" y="240" width="110" height="30" as="geometry" />
        </mxCell>
      </root>
    </mxGraphModel>
  </diagram>
</mxfile>
